<svg id="visual" viewBox="0 0 900 600" width="900" height="600" xmlns="http://www.w3.org/2000/svg" xmlns:xlink="http://www.w3.org/1999/xlink" version="1.1"><g stroke-width="1" stroke-linejoin="bevel"><path d="M450 296.1L475 264.3L443 293.1Z" fill="#19435d" stroke="#19435d"></path><path d="M450 296.1L484 269L475 264.3Z" fill="#1d4e6b" stroke="#1d4e6b"></path><path d="M475 264.3L419 271.3L443 293.1Z" fill="#0c2435" stroke="#0c2435"></path><path d="M484 269L479 230.3L475 264.3Z" fill="#15384f" stroke="#15384f"></path><path d="M475 264.3L479 230.3L419 271.3Z" fill="#112e42" stroke="#112e42"></path><path d="M402 224.3L400 280L419 271.3Z" fill="#00101c" stroke="#00101c"></path><path d="M419 271.3L400 280L443 293.1Z" fill="#0c2435" stroke="#0c2435"></path><path d="M426 348L464 338.9L450 296.1Z" fill="#0c2435" stroke="#0c2435"></path><path d="M539 250.1L510 249.3L544 316.1Z" fill="#246688" stroke="#246688"></path><path d="M484 269L510 249.3L479 230.3Z" fill="#081a28" stroke="#081a28"></path><path d="M426 348L450 296.1L443 293.1Z" fill="#00101c" stroke="#00101c"></path><path d="M450 296.1L464 338.9L484 269Z" fill="#277297" stroke="#277297"></path><path d="M479 230.3L402 224.3L419 271.3Z" fill="#1d4e6b" stroke="#1d4e6b"></path><path d="M400 280L426 348L443 293.1Z" fill="#1d4e6b" stroke="#1d4e6b"></path><path d="M444 154.4L394 214.1L402 224.3Z" fill="#00101c" stroke="#00101c"></path><path d="M402 224.3L364 268L400 280Z" fill="#0c2435" stroke="#0c2435"></path><path d="M544 316.1L510 249.3L484 269Z" fill="#19435d" stroke="#19435d"></path><path d="M510 249.3L546 182.4L479 230.3Z" fill="#081a28" stroke="#081a28"></path><path d="M426 348L440 361.7L464 338.9Z" fill="#00101c" stroke="#00101c"></path><path d="M440 361.7L484 360L464 338.9Z" fill="#205a7a" stroke="#205a7a"></path><path d="M464 338.9L544 316.1L484 269Z" fill="#112e42" stroke="#112e42"></path><path d="M394 214.1L364 268L402 224.3Z" fill="#277297" stroke="#277297"></path><path d="M400 280L399 356.9L426 348Z" fill="#15384f" stroke="#15384f"></path><path d="M484 360L544 316.1L464 338.9Z" fill="#1d4e6b" stroke="#1d4e6b"></path><path d="M364 268L399 356.9L400 280Z" fill="#246688" stroke="#246688"></path><path d="M426 348L399 356.9L440 361.7Z" fill="#19435d" stroke="#19435d"></path><path d="M461 397.9L508 378.9L484 360Z" fill="#246688" stroke="#246688"></path><path d="M484 360L508 378.9L544 316.1Z" fill="#15384f" stroke="#15384f"></path><path d="M461 397.9L484 360L440 361.7Z" fill="#0c2435" stroke="#0c2435"></path><path d="M399 356.9L432 392.7L440 361.7Z" fill="#246688" stroke="#246688"></path><path d="M546 182.4L444 154.4L479 230.3Z" fill="#246688" stroke="#246688"></path><path d="M479 230.3L444 154.4L402 224.3Z" fill="#246688" stroke="#246688"></path><path d="M432 392.7L461 397.9L440 361.7Z" fill="#0c2435" stroke="#0c2435"></path><path d="M330 221.1L330 274.1L364 268Z" fill="#246688" stroke="#246688"></path><path d="M364 268L354 368.6L399 356.9Z" fill="#0c2435" stroke="#0c2435"></path><path d="M330 221.1L364 268L394 214.1Z" fill="#297ea6" stroke="#297ea6"></path><path d="M444 154.4L416 153.4L394 214.1Z" fill="#205a7a" stroke="#205a7a"></path><path d="M564 180.4L546 182.4L539 250.1Z" fill="#00101c" stroke="#00101c"></path><path d="M539 250.1L546 182.4L510 249.3Z" fill="#246688" stroke="#246688"></path><path d="M581 332.7L584 312L544 316.1Z" fill="#0c2435" stroke="#0c2435"></path><path d="M544 316.1L584 312L539 250.1Z" fill="#00101c" stroke="#00101c"></path><path d="M508 378.9L571 342.9L544 316.1Z" fill="#00101c" stroke="#00101c"></path><path d="M313 174.4L330 221.1L394 214.1Z" fill="#081a28" stroke="#081a28"></path><path d="M399 356.9L408 402.6L432 392.7Z" fill="#205a7a" stroke="#205a7a"></path><path d="M432 392.7L430 441.4L461 397.9Z" fill="#081a28" stroke="#081a28"></path><path d="M373 391.7L408 402.6L399 356.9Z" fill="#1d4e6b" stroke="#1d4e6b"></path><path d="M330 274.1L354 368.6L364 268Z" fill="#15384f" stroke="#15384f"></path><path d="M586 362.7L575 343.9L571 342.9Z" fill="#277297" stroke="#277297"></path><path d="M571 342.9L581 332.7L544 316.1Z" fill="#1d4e6b" stroke="#1d4e6b"></path><path d="M575 343.9L581 332.7L571 342.9Z" fill="#19435d" stroke="#19435d"></path><path d="M546 182.4L460 132.7L444 154.4Z" fill="#277297" stroke="#277297"></path><path d="M444 154.4L460 132.7L416 153.4Z" fill="#19435d" stroke="#19435d"></path><path d="M354 368.6L373 391.7L399 356.9Z" fill="#19435d" stroke="#19435d"></path><path d="M596 203.4L564 180.4L539 250.1Z" fill="#112e42" stroke="#112e42"></path><path d="M497 108.6L462 111.7L460 132.7Z" fill="#297ea6" stroke="#297ea6"></path><path d="M330 221.1L308 272.1L330 274.1Z" fill="#205a7a" stroke="#205a7a"></path><path d="M330 274.1L303 310.9L354 368.6Z" fill="#112e42" stroke="#112e42"></path><path d="M373 391.7L390 415.6L408 402.6Z" fill="#205a7a" stroke="#205a7a"></path><path d="M408 402.6L430 441.4L432 392.7Z" fill="#205a7a" stroke="#205a7a"></path><path d="M372 415.4L390 415.6L373 391.7Z" fill="#277297" stroke="#277297"></path><path d="M308 272.1L303 310.9L330 274.1Z" fill="#00101c" stroke="#00101c"></path><path d="M308 400.6L372 415.4L373 391.7Z" fill="#00101c" stroke="#00101c"></path><path d="M584 312L596 203.4L539 250.1Z" fill="#0c2435" stroke="#0c2435"></path><path d="M581 332.7L615 312.9L584 312Z" fill="#205a7a" stroke="#205a7a"></path><path d="M584 312L615 312.9L596 203.4Z" fill="#0c2435" stroke="#0c2435"></path><path d="M575 343.9L586 362.7L581 332.7Z" fill="#205a7a" stroke="#205a7a"></path><path d="M555 413.6L586 362.7L571 342.9Z" fill="#112e42" stroke="#112e42"></path><path d="M555 413.6L571 342.9L508 378.9Z" fill="#19435d" stroke="#19435d"></path><path d="M497 108.6L460 132.7L546 182.4Z" fill="#15384f" stroke="#15384f"></path><path d="M460 132.7L420 95.9L416 153.4Z" fill="#00101c" stroke="#00101c"></path><path d="M416 153.4L358 136.6L394 214.1Z" fill="#15384f" stroke="#15384f"></path><path d="M308 400.6L373 391.7L354 368.6Z" fill="#277297" stroke="#277297"></path><path d="M586 362.7L615 312.9L581 332.7Z" fill="#15384f" stroke="#15384f"></path><path d="M647 217.3L595 186.3L596 203.4Z" fill="#205a7a" stroke="#205a7a"></path><path d="M596 203.4L595 186.3L564 180.4Z" fill="#112e42" stroke="#112e42"></path><path d="M551 122.4L497 108.6L546 182.4Z" fill="#205a7a" stroke="#205a7a"></path><path d="M479 467.6L524 426.4L461 397.9Z" fill="#112e42" stroke="#112e42"></path><path d="M461 397.9L524 426.4L508 378.9Z" fill="#0c2435" stroke="#0c2435"></path><path d="M430 441.4L408 402.6L390 415.6Z" fill="#205a7a" stroke="#205a7a"></path><path d="M379 89.9L358 136.6L416 153.4Z" fill="#297ea6" stroke="#297ea6"></path><path d="M330 221.1L280 222.3L308 272.1Z" fill="#0c2435" stroke="#0c2435"></path><path d="M380 437.7L430 441.4L390 415.6Z" fill="#277297" stroke="#277297"></path><path d="M551 122.4L546 182.4L564 180.4Z" fill="#0c2435" stroke="#0c2435"></path><path d="M524 426.4L555 413.6L508 378.9Z" fill="#297ea6" stroke="#297ea6"></path><path d="M358 136.6L313 174.4L394 214.1Z" fill="#19435d" stroke="#19435d"></path><path d="M223 267.1L274 334L303 310.9Z" fill="#15384f" stroke="#15384f"></path><path d="M303 310.9L306 365.7L354 368.6Z" fill="#00101c" stroke="#00101c"></path><path d="M582 129.6L551 122.4L564 180.4Z" fill="#205a7a" stroke="#205a7a"></path><path d="M372 415.4L380 437.7L390 415.6Z" fill="#112e42" stroke="#112e42"></path><path d="M308 400.6L380 437.7L372 415.4Z" fill="#15384f" stroke="#15384f"></path><path d="M430 91.6L420 95.9L462 111.7Z" fill="#00101c" stroke="#00101c"></path><path d="M462 111.7L420 95.9L460 132.7Z" fill="#00101c" stroke="#00101c"></path><path d="M313 174.4L280 222.3L330 221.1Z" fill="#0c2435" stroke="#0c2435"></path><path d="M274 334L299 371.6L306 365.7Z" fill="#00101c" stroke="#00101c"></path><path d="M274 334L306 365.7L303 310.9Z" fill="#15384f" stroke="#15384f"></path><path d="M306 365.7L308 400.6L354 368.6Z" fill="#246688" stroke="#246688"></path><path d="M511 87.7L500 95.7L497 108.6Z" fill="#00101c" stroke="#00101c"></path><path d="M497 108.6L500 95.7L462 111.7Z" fill="#0c2435" stroke="#0c2435"></path><path d="M500 95.7L430 91.6L462 111.7Z" fill="#00101c" stroke="#00101c"></path><path d="M223 267.1L303 310.9L308 272.1Z" fill="#205a7a" stroke="#205a7a"></path><path d="M595 186.3L582 129.6L564 180.4Z" fill="#0c2435" stroke="#0c2435"></path><path d="M551 122.4L511 87.7L497 108.6Z" fill="#00101c" stroke="#00101c"></path><path d="M262 370.9L308 400.6L299 371.6Z" fill="#277297" stroke="#277297"></path><path d="M299 371.6L308 400.6L306 365.7Z" fill="#15384f" stroke="#15384f"></path><path d="M615 416.7L622 373.6L586 362.7Z" fill="#297ea6" stroke="#297ea6"></path><path d="M586 362.7L622 373.6L615 312.9Z" fill="#205a7a" stroke="#205a7a"></path><path d="M426 473.3L479 467.6L430 441.4Z" fill="#297ea6" stroke="#297ea6"></path><path d="M430 441.4L479 467.6L461 397.9Z" fill="#15384f" stroke="#15384f"></path><path d="M524 426.4L507 465.4L555 413.6Z" fill="#081a28" stroke="#081a28"></path><path d="M555 413.6L615 416.7L586 362.7Z" fill="#277297" stroke="#277297"></path><path d="M553 98.6L511 87.7L551 122.4Z" fill="#112e42" stroke="#112e42"></path><path d="M500 95.7L456 0L430 91.6Z" fill="#1d4e6b" stroke="#1d4e6b"></path><path d="M351 103.9L326 125.4L358 136.6Z" fill="#205a7a" stroke="#205a7a"></path><path d="M358 136.6L326 125.4L313 174.4Z" fill="#15384f" stroke="#15384f"></path><path d="M268 196.3L267 213.1L280 222.3Z" fill="#246688" stroke="#246688"></path><path d="M379 89.9L416 153.4L420 95.9Z" fill="#081a28" stroke="#081a28"></path><path d="M268 196.3L280 222.3L313 174.4Z" fill="#205a7a" stroke="#205a7a"></path><path d="M280 222.3L223 267.1L308 272.1Z" fill="#15384f" stroke="#15384f"></path><path d="M479 467.6L507 465.4L524 426.4Z" fill="#0c2435" stroke="#0c2435"></path><path d="M361 74.6L379 89.9L404 0Z" fill="#297ea6" stroke="#297ea6"></path><path d="M430 91.6L379 89.9L420 95.9Z" fill="#205a7a" stroke="#205a7a"></path><path d="M379 89.9L351 103.9L358 136.6Z" fill="#19435d" stroke="#19435d"></path><path d="M615 312.9L647 217.3L596 203.4Z" fill="#1d4e6b" stroke="#1d4e6b"></path><path d="M595 186.3L614 119.7L582 129.6Z" fill="#112e42" stroke="#112e42"></path><path d="M654 331L647 217.3L615 312.9Z" fill="#205a7a" stroke="#205a7a"></path><path d="M428 477.4L426 473.3L336 558.3Z" fill="#081a28" stroke="#081a28"></path><path d="M380 437.7L426 473.3L430 441.4Z" fill="#205a7a" stroke="#205a7a"></path><path d="M479 467.6L491 531.1L507 465.4Z" fill="#19435d" stroke="#19435d"></path><path d="M585 101.7L553 98.6L551 122.4Z" fill="#205a7a" stroke="#205a7a"></path><path d="M296 78.6L313 130.7L326 125.4Z" fill="#00101c" stroke="#00101c"></path><path d="M326 125.4L313 130.7L313 174.4Z" fill="#00101c" stroke="#00101c"></path><path d="M269 190.4L268 196.3L313 174.4Z" fill="#00101c" stroke="#00101c"></path><path d="M313 130.7L269 190.4L313 174.4Z" fill="#246688" stroke="#246688"></path><path d="M440 521.3L336 558.3L421 560.3Z" fill="#081a28" stroke="#081a28"></path><path d="M426 473.3L428 477.4L479 467.6Z" fill="#1d4e6b" stroke="#1d4e6b"></path><path d="M622 373.6L654 331L615 312.9Z" fill="#081a28" stroke="#081a28"></path><path d="M619 452.6L615 416.7L555 413.6Z" fill="#112e42" stroke="#112e42"></path><path d="M681 387.9L681 335.7L654 331Z" fill="#19435d" stroke="#19435d"></path><path d="M585 101.7L551 122.4L582 129.6Z" fill="#277297" stroke="#277297"></path><path d="M585 101.7L562 87.9L553 98.6Z" fill="#277297" stroke="#277297"></path><path d="M553 98.6L562 87.9L511 87.7Z" fill="#246688" stroke="#246688"></path><path d="M248 352L262 370.9L274 334Z" fill="#1d4e6b" stroke="#1d4e6b"></path><path d="M274 334L262 370.9L299 371.6Z" fill="#0c2435" stroke="#0c2435"></path><path d="M614 119.7L585 101.7L582 129.6Z" fill="#0c2435" stroke="#0c2435"></path><path d="M404 0L379 89.9L430 91.6Z" fill="#00101c" stroke="#00101c"></path><path d="M379 89.9L361 74.6L351 103.9Z" fill="#19435d" stroke="#19435d"></path><path d="M351 103.9L296 78.6L326 125.4Z" fill="#0c2435" stroke="#0c2435"></path><path d="M456 0L500 95.7L511 87.7Z" fill="#19435d" stroke="#19435d"></path><path d="M224 330.9L248 352L274 334Z" fill="#246688" stroke="#246688"></path><path d="M223 267.1L280 222.3L219 246Z" fill="#112e42" stroke="#112e42"></path><path d="M652 152.4L614 119.7L595 186.3Z" fill="#19435d" stroke="#19435d"></path><path d="M690 191.3L652 152.4L647 217.3Z" fill="#246688" stroke="#246688"></path><path d="M647 217.3L652 152.4L595 186.3Z" fill="#246688" stroke="#246688"></path><path d="M219 246L267 213.1L225 210.4Z" fill="#15384f" stroke="#15384f"></path><path d="M219 246L280 222.3L267 213.1Z" fill="#112e42" stroke="#112e42"></path><path d="M681 387.9L654 331L622 373.6Z" fill="#1d4e6b" stroke="#1d4e6b"></path><path d="M654 331L717 239.1L647 217.3Z" fill="#0c2435" stroke="#0c2435"></path><path d="M225 210.4L267 213.1L268 196.3Z" fill="#246688" stroke="#246688"></path><path d="M225 210.4L268 196.3L234 169.6Z" fill="#277297" stroke="#277297"></path><path d="M186 307L224 330.9L223 267.1Z" fill="#081a28" stroke="#081a28"></path><path d="M223 267.1L224 330.9L274 334Z" fill="#081a28" stroke="#081a28"></path><path d="M231 410.7L252 411.4L262 370.9Z" fill="#1d4e6b" stroke="#1d4e6b"></path><path d="M234 169.6L268 196.3L269 190.4Z" fill="#081a28" stroke="#081a28"></path><path d="M234 169.6L269 190.4L313 130.7Z" fill="#205a7a" stroke="#205a7a"></path><path d="M717 239.1L686 207.1L647 217.3Z" fill="#00101c" stroke="#00101c"></path><path d="M582 509.4L619 452.6L555 413.6Z" fill="#1d4e6b" stroke="#1d4e6b"></path><path d="M615 416.7L681 387.9L622 373.6Z" fill="#15384f" stroke="#15384f"></path><path d="M582 509.4L555 413.6L507 465.4Z" fill="#297ea6" stroke="#297ea6"></path><path d="M617 88.6L585 101.7L614 119.7Z" fill="#205a7a" stroke="#205a7a"></path><path d="M617 88.6L608 83.6L585 101.7Z" fill="#297ea6" stroke="#297ea6"></path><path d="M585 101.7L590 56.9L562 87.9Z" fill="#19435d" stroke="#19435d"></path><path d="M562 87.9L554 42.9L511 87.7Z" fill="#246688" stroke="#246688"></path><path d="M229 132.7L234 169.6L313 130.7Z" fill="#081a28" stroke="#081a28"></path><path d="M231 410.7L262 370.9L214 382.9Z" fill="#205a7a" stroke="#205a7a"></path><path d="M262 370.9L252 411.4L308 400.6Z" fill="#277297" stroke="#277297"></path><path d="M308 400.6L251 452.6L380 437.7Z" fill="#0c2435" stroke="#0c2435"></path><path d="M681 84.9L617 88.6L614 119.7Z" fill="#19435d" stroke="#19435d"></path><path d="M619 79.9L617 88.6L681 84.9Z" fill="#205a7a" stroke="#205a7a"></path><path d="M440 521.3L428 477.4L336 558.3Z" fill="#112e42" stroke="#112e42"></path><path d="M428 477.4L458 526.1L479 467.6Z" fill="#112e42" stroke="#112e42"></path><path d="M715 175.3L690 191.3L686 207.1Z" fill="#00101c" stroke="#00101c"></path><path d="M686 207.1L690 191.3L647 217.3Z" fill="#246688" stroke="#246688"></path><path d="M440 521.3L458 526.1L428 477.4Z" fill="#19435d" stroke="#19435d"></path><path d="M590 56.9L585 101.7L608 83.6Z" fill="#15384f" stroke="#15384f"></path><path d="M590 56.9L554 42.9L562 87.9Z" fill="#0c2435" stroke="#0c2435"></path><path d="M307 29.7L296 78.6L361 74.6Z" fill="#277297" stroke="#277297"></path><path d="M361 74.6L296 78.6L351 103.9Z" fill="#19435d" stroke="#19435d"></path><path d="M697 442.4L681 387.9L615 416.7Z" fill="#15384f" stroke="#15384f"></path><path d="M733 272.1L717 239.1L654 331Z" fill="#081a28" stroke="#081a28"></path><path d="M681 84.9L614 119.7L652 152.4Z" fill="#1d4e6b" stroke="#1d4e6b"></path><path d="M617 88.6L619 79.9L608 83.6Z" fill="#0c2435" stroke="#0c2435"></path><path d="M681 387.9L699 348.9L681 335.7Z" fill="#297ea6" stroke="#297ea6"></path><path d="M619 79.9L590 56.9L608 83.6Z" fill="#297ea6" stroke="#297ea6"></path><path d="M458 526.1L491 531.1L479 467.6Z" fill="#081a28" stroke="#081a28"></path><path d="M214 382.9L262 370.9L248 352Z" fill="#081a28" stroke="#081a28"></path><path d="M252 411.4L251 452.6L308 400.6Z" fill="#1d4e6b" stroke="#1d4e6b"></path><path d="M733 272.1L654 331L681 335.7Z" fill="#1d4e6b" stroke="#1d4e6b"></path><path d="M224 330.9L214 382.9L248 352Z" fill="#00101c" stroke="#00101c"></path><path d="M189 346.7L214 382.9L224 330.9Z" fill="#112e42" stroke="#112e42"></path><path d="M245 100.6L229 132.7L313 130.7Z" fill="#246688" stroke="#246688"></path><path d="M234 169.6L188 184.3L225 210.4Z" fill="#081a28" stroke="#081a28"></path><path d="M160 268.3L223 267.1L219 246Z" fill="#112e42" stroke="#112e42"></path><path d="M542 533.1L582 509.4L507 465.4Z" fill="#205a7a" stroke="#205a7a"></path><path d="M619 452.6L697 442.4L615 416.7Z" fill="#112e42" stroke="#112e42"></path><path d="M569 565.3L586 509.1L582 509.4Z" fill="#246688" stroke="#246688"></path><path d="M582 509.4L586 509.1L619 452.6Z" fill="#1d4e6b" stroke="#1d4e6b"></path><path d="M440 521.3L460 543.3L458 526.1Z" fill="#19435d" stroke="#19435d"></path><path d="M458 526.1L460 543.3L491 531.1Z" fill="#246688" stroke="#246688"></path><path d="M491 531.1L542 533.1L507 465.4Z" fill="#246688" stroke="#246688"></path><path d="M421 560.3L460 543.3L440 521.3Z" fill="#19435d" stroke="#19435d"></path><path d="M210 418.4L251 452.6L231 410.7Z" fill="#205a7a" stroke="#205a7a"></path><path d="M231 410.7L251 452.6L252 411.4Z" fill="#00101c" stroke="#00101c"></path><path d="M188 184.3L219 246L225 210.4Z" fill="#00101c" stroke="#00101c"></path><path d="M160 268.3L186 307L223 267.1Z" fill="#297ea6" stroke="#297ea6"></path><path d="M296 78.6L245 100.6L313 130.7Z" fill="#205a7a" stroke="#205a7a"></path><path d="M491 552.1L542 533.1L491 531.1Z" fill="#0c2435" stroke="#0c2435"></path><path d="M496 0L511 87.7L554 42.9Z" fill="#112e42" stroke="#112e42"></path><path d="M496 0L456 0L511 87.7Z" fill="#277297" stroke="#277297"></path><path d="M296 78.6L250 23.7L245 100.6Z" fill="#277297" stroke="#277297"></path><path d="M729 388.6L720 347L699 348.9Z" fill="#15384f" stroke="#15384f"></path><path d="M699 348.9L720 347L681 335.7Z" fill="#15384f" stroke="#15384f"></path><path d="M729 388.6L699 348.9L681 387.9Z" fill="#277297" stroke="#277297"></path><path d="M186 307L189 346.7L224 330.9Z" fill="#081a28" stroke="#081a28"></path><path d="M214 382.9L207 406.7L231 410.7Z" fill="#0c2435" stroke="#0c2435"></path><path d="M460 543.3L483 549.1L491 531.1Z" fill="#277297" stroke="#277297"></path><path d="M531 0L496 0L554 42.9Z" fill="#0c2435" stroke="#0c2435"></path><path d="M720 347L733 272.1L681 335.7Z" fill="#15384f" stroke="#15384f"></path><path d="M630 515.3L628 492.3L586 509.1Z" fill="#112e42" stroke="#112e42"></path><path d="M586 509.1L628 492.3L619 452.6Z" fill="#0c2435" stroke="#0c2435"></path><path d="M717 239.1L715 175.3L686 207.1Z" fill="#15384f" stroke="#15384f"></path><path d="M690 191.3L715 175.3L652 152.4Z" fill="#1d4e6b" stroke="#1d4e6b"></path><path d="M734 172.6L715 175.3L753 226.1Z" fill="#246688" stroke="#246688"></path><path d="M456 0L404 0L430 91.6Z" fill="#0c2435" stroke="#0c2435"></path><path d="M483 549.1L491 552.1L491 531.1Z" fill="#246688" stroke="#246688"></path><path d="M478 600L491 552.1L483 549.1Z" fill="#246688" stroke="#246688"></path><path d="M188 413.4L207 406.7L214 382.9Z" fill="#19435d" stroke="#19435d"></path><path d="M200 148.6L234 169.6L229 132.7Z" fill="#19435d" stroke="#19435d"></path><path d="M200 148.6L188 184.3L234 169.6Z" fill="#1d4e6b" stroke="#1d4e6b"></path><path d="M188 413.4L210 418.4L207 406.7Z" fill="#246688" stroke="#246688"></path><path d="M207 406.7L210 418.4L231 410.7Z" fill="#15384f" stroke="#15384f"></path><path d="M156 98.6L200 148.6L229 132.7Z" fill="#15384f" stroke="#15384f"></path><path d="M532 0L531 0L554 42.9Z" fill="#081a28" stroke="#081a28"></path><path d="M532 0L554 42.9L555 0Z" fill="#00101c" stroke="#00101c"></path><path d="M555 0L554 42.9L590 56.9Z" fill="#081a28" stroke="#081a28"></path><path d="M334 0L307 29.7L361 74.6Z" fill="#00101c" stroke="#00101c"></path><path d="M168 72.7L156 98.6L229 132.7Z" fill="#297ea6" stroke="#297ea6"></path><path d="M496 0L479 -12.1L456 0Z" fill="#277297" stroke="#277297"></path><path d="M456 0L479 -12.1L404 0Z" fill="#205a7a" stroke="#205a7a"></path><path d="M531 0L479 -12.1L496 0Z" fill="#19435d" stroke="#19435d"></path><path d="M532 0L479 -12.1L531 0Z" fill="#205a7a" stroke="#205a7a"></path><path d="M336 558.3L426 473.3L380 437.7Z" fill="#277297" stroke="#277297"></path><path d="M460 543.3L472 600L483 549.1Z" fill="#15384f" stroke="#15384f"></path><path d="M622 28.9L555 0L590 56.9Z" fill="#205a7a" stroke="#205a7a"></path><path d="M532 0L555 0L479 -12.1Z" fill="#297ea6" stroke="#297ea6"></path><path d="M622 28.9L590 56.9L619 79.9Z" fill="#277297" stroke="#277297"></path><path d="M673 490.3L697 442.4L619 452.6Z" fill="#00101c" stroke="#00101c"></path><path d="M709 108.7L681 84.9L652 152.4Z" fill="#112e42" stroke="#112e42"></path><path d="M188 184.3L160 268.3L219 246Z" fill="#246688" stroke="#246688"></path><path d="M105 350L154 404.6L189 346.7Z" fill="#15384f" stroke="#15384f"></path><path d="M189 346.7L188 413.4L214 382.9Z" fill="#205a7a" stroke="#205a7a"></path><path d="M721 428.4L729 388.6L681 387.9Z" fill="#00101c" stroke="#00101c"></path><path d="M754 345.7L755 267L733 272.1Z" fill="#0c2435" stroke="#0c2435"></path><path d="M753 226.1L715 175.3L717 239.1Z" fill="#15384f" stroke="#15384f"></path><path d="M715 175.3L709 108.7L652 152.4Z" fill="#205a7a" stroke="#205a7a"></path><path d="M681 84.9L622 28.9L619 79.9Z" fill="#297ea6" stroke="#297ea6"></path><path d="M632 525.3L630 515.3L586 509.1Z" fill="#112e42" stroke="#112e42"></path><path d="M628 492.3L673 490.3L619 452.6Z" fill="#1d4e6b" stroke="#1d4e6b"></path><path d="M632 525.3L586 509.1L569 565.3Z" fill="#112e42" stroke="#112e42"></path><path d="M200 148.6L170 183.3L188 184.3Z" fill="#1d4e6b" stroke="#1d4e6b"></path><path d="M188 184.3L170 183.3L160 268.3Z" fill="#112e42" stroke="#112e42"></path><path d="M754 345.7L733 272.1L720 347Z" fill="#081a28" stroke="#081a28"></path><path d="M733 272.1L755 267L717 239.1Z" fill="#0c2435" stroke="#0c2435"></path><path d="M479 -12.1L334 0L404 0Z" fill="#246688" stroke="#246688"></path><path d="M404 0L334 0L361 74.6Z" fill="#1d4e6b" stroke="#1d4e6b"></path><path d="M154 404.6L188 413.4L189 346.7Z" fill="#246688" stroke="#246688"></path><path d="M191 453.3L237 482.3L251 452.6Z" fill="#246688" stroke="#246688"></path><path d="M269 521.3L336 558.3L380 437.7Z" fill="#205a7a" stroke="#205a7a"></path><path d="M191 453.3L251 452.6L210 418.4Z" fill="#081a28" stroke="#081a28"></path><path d="M755 267L753 226.1L717 239.1Z" fill="#081a28" stroke="#081a28"></path><path d="M746 129.4L709 108.7L715 175.3Z" fill="#246688" stroke="#246688"></path><path d="M681 0L637 0L622 28.9Z" fill="#246688" stroke="#246688"></path><path d="M630 515.3L673 490.3L628 492.3Z" fill="#19435d" stroke="#19435d"></path><path d="M697 442.4L721 428.4L681 387.9Z" fill="#081a28" stroke="#081a28"></path><path d="M569 565.3L582 509.4L542 533.1Z" fill="#297ea6" stroke="#297ea6"></path><path d="M630 515.3L680 501.4L673 490.3Z" fill="#246688" stroke="#246688"></path><path d="M723 437.6L721 428.4L697 442.4Z" fill="#205a7a" stroke="#205a7a"></path><path d="M729 388.6L754 345.7L720 347Z" fill="#19435d" stroke="#19435d"></path><path d="M763 388.9L754 345.7L729 388.6Z" fill="#1d4e6b" stroke="#1d4e6b"></path><path d="M269 521.3L380 437.7L251 452.6Z" fill="#15384f" stroke="#15384f"></path><path d="M237 482.3L269 521.3L251 452.6Z" fill="#1d4e6b" stroke="#1d4e6b"></path><path d="M551 600L542 533.1L491 552.1Z" fill="#277297" stroke="#277297"></path><path d="M551 600L569 565.3L542 533.1Z" fill="#277297" stroke="#277297"></path><path d="M472 600L460 543.3L434 600Z" fill="#15384f" stroke="#15384f"></path><path d="M680 501.4L723 437.6L697 442.4Z" fill="#19435d" stroke="#19435d"></path><path d="M751 420.4L763 388.9L729 388.6Z" fill="#277297" stroke="#277297"></path><path d="M799 263.3L768 226.4L755 267Z" fill="#297ea6" stroke="#297ea6"></path><path d="M755 267L768 226.4L753 226.1Z" fill="#205a7a" stroke="#205a7a"></path><path d="M753 226.1L778 179.4L734 172.6Z" fill="#15384f" stroke="#15384f"></path><path d="M734 172.6L746 129.4L715 175.3Z" fill="#112e42" stroke="#112e42"></path><path d="M154 404.6L191 453.3L188 413.4Z" fill="#1d4e6b" stroke="#1d4e6b"></path><path d="M188 413.4L191 453.3L210 418.4Z" fill="#297ea6" stroke="#297ea6"></path><path d="M256 531.4L279 542.1L269 521.3Z" fill="#15384f" stroke="#15384f"></path><path d="M632 525.3L680 501.4L630 515.3Z" fill="#112e42" stroke="#112e42"></path><path d="M673 490.3L680 501.4L697 442.4Z" fill="#297ea6" stroke="#297ea6"></path><path d="M715 544.1L680 501.4L632 525.3Z" fill="#277297" stroke="#277297"></path><path d="M256 531.4L269 521.3L237 482.3Z" fill="#246688" stroke="#246688"></path><path d="M269 521.3L279 542.1L336 558.3Z" fill="#297ea6" stroke="#297ea6"></path><path d="M334 0L292 -3.1L307 29.7Z" fill="#112e42" stroke="#112e42"></path><path d="M307 29.7L250 23.7L296 78.6Z" fill="#277297" stroke="#277297"></path><path d="M200 148.6L146 103.9L170 183.3Z" fill="#1d4e6b" stroke="#1d4e6b"></path><path d="M479 -12.1L292 -3.1L334 0Z" fill="#246688" stroke="#246688"></path><path d="M300 600L357 582.1L336 558.3Z" fill="#297ea6" stroke="#297ea6"></path><path d="M336 558.3L357 582.1L421 560.3Z" fill="#205a7a" stroke="#205a7a"></path><path d="M270 0L250 23.7L307 29.7Z" fill="#297ea6" stroke="#297ea6"></path><path d="M764 156.6L746 129.4L734 172.6Z" fill="#277297" stroke="#277297"></path><path d="M681 0L622 28.9L681 84.9Z" fill="#15384f" stroke="#15384f"></path><path d="M165 552.1L256 531.4L237 482.3Z" fill="#205a7a" stroke="#205a7a"></path><path d="M279 542.1L300 600L336 558.3Z" fill="#1d4e6b" stroke="#1d4e6b"></path><path d="M434 600L460 543.3L421 560.3Z" fill="#00101c" stroke="#00101c"></path><path d="M417 600L434 600L421 560.3Z" fill="#19435d" stroke="#19435d"></path><path d="M472 600L478 600L483 549.1Z" fill="#00101c" stroke="#00101c"></path><path d="M357 582.1L417 600L421 560.3Z" fill="#19435d" stroke="#19435d"></path><path d="M142 405.7L154 404.6L105 350Z" fill="#112e42" stroke="#112e42"></path><path d="M751 420.4L721 428.4L723 437.6Z" fill="#1d4e6b" stroke="#1d4e6b"></path><path d="M751 420.4L729 388.6L721 428.4Z" fill="#112e42" stroke="#112e42"></path><path d="M754 345.7L780 348.9L755 267Z" fill="#00101c" stroke="#00101c"></path><path d="M748 90.7L681 84.9L709 108.7Z" fill="#205a7a" stroke="#205a7a"></path><path d="M622 28.9L637 0L555 0Z" fill="#0c2435" stroke="#0c2435"></path><path d="M555 0L637 0L479 -12.1Z" fill="#205a7a" stroke="#205a7a"></path><path d="M773 416.6L751 420.4L817 482.6Z" fill="#00101c" stroke="#00101c"></path><path d="M778 179.4L764 156.6L734 172.6Z" fill="#081a28" stroke="#081a28"></path><path d="M292 -3.1L270 0L307 29.7Z" fill="#00101c" stroke="#00101c"></path><path d="M815 356.7L780 348.9L763 388.9Z" fill="#297ea6" stroke="#297ea6"></path><path d="M763 388.9L780 348.9L754 345.7Z" fill="#1d4e6b" stroke="#1d4e6b"></path><path d="M768 226.4L778 179.4L753 226.1Z" fill="#0c2435" stroke="#0c2435"></path><path d="M146 476.6L183 470.4L191 453.3Z" fill="#1d4e6b" stroke="#1d4e6b"></path><path d="M191 453.3L183 470.4L237 482.3Z" fill="#1d4e6b" stroke="#1d4e6b"></path><path d="M802 234.3L778 179.4L768 226.4Z" fill="#246688" stroke="#246688"></path><path d="M170 183.3L120 232.4L160 268.3Z" fill="#15384f" stroke="#15384f"></path><path d="M105 350L189 346.7L186 307Z" fill="#0c2435" stroke="#0c2435"></path><path d="M114 183.4L120 232.4L170 183.3Z" fill="#15384f" stroke="#15384f"></path><path d="M478 600L551 600L491 552.1Z" fill="#081a28" stroke="#081a28"></path><path d="M569 565.3L571 600L632 525.3Z" fill="#00101c" stroke="#00101c"></path><path d="M105 350L186 307L160 268.3Z" fill="#1d4e6b" stroke="#1d4e6b"></path><path d="M154 404.6L146 476.6L191 453.3Z" fill="#081a28" stroke="#081a28"></path><path d="M780 348.9L799 263.3L755 267Z" fill="#0c2435" stroke="#0c2435"></path><path d="M551 600L570 600L569 565.3Z" fill="#15384f" stroke="#15384f"></path><path d="M570 600L571 600L569 565.3Z" fill="#1d4e6b" stroke="#1d4e6b"></path><path d="M766 90.7L746 129.4L794 120.7Z" fill="#00101c" stroke="#00101c"></path><path d="M766 90.7L748 90.7L746 129.4Z" fill="#15384f" stroke="#15384f"></path><path d="M746 129.4L748 90.7L709 108.7Z" fill="#205a7a" stroke="#205a7a"></path><path d="M168 72.7L245 100.6L250 23.7Z" fill="#00101c" stroke="#00101c"></path><path d="M168 72.7L229 132.7L245 100.6Z" fill="#19435d" stroke="#19435d"></path><path d="M817 482.6L751 420.4L723 437.6Z" fill="#0c2435" stroke="#0c2435"></path><path d="M751 420.4L773 416.6L763 388.9Z" fill="#246688" stroke="#246688"></path><path d="M818 352L819 265L799 263.3Z" fill="#0c2435" stroke="#0c2435"></path><path d="M799 263.3L802 234.3L768 226.4Z" fill="#112e42" stroke="#112e42"></path><path d="M794 120.7L746 129.4L764 156.6Z" fill="#112e42" stroke="#112e42"></path><path d="M201 6.9L168 72.7L250 23.7Z" fill="#277297" stroke="#277297"></path><path d="M92 241.1L105 248.3L120 232.4Z" fill="#297ea6" stroke="#297ea6"></path><path d="M120 232.4L105 248.3L160 268.3Z" fill="#19435d" stroke="#19435d"></path><path d="M143 104.7L114 183.4L170 183.3Z" fill="#00101c" stroke="#00101c"></path><path d="M146 103.9L200 148.6L156 98.6Z" fill="#112e42" stroke="#112e42"></path><path d="M168 72.7L146 103.9L156 98.6Z" fill="#15384f" stroke="#15384f"></path><path d="M230 583.1L262 572.1L256 531.4Z" fill="#205a7a" stroke="#205a7a"></path><path d="M256 531.4L262 572.1L279 542.1Z" fill="#112e42" stroke="#112e42"></path><path d="M357 582.1L300 600L417 600Z" fill="#081a28" stroke="#081a28"></path><path d="M168 72.7L143 104.7L146 103.9Z" fill="#246688" stroke="#246688"></path><path d="M146 103.9L143 104.7L170 183.3Z" fill="#15384f" stroke="#15384f"></path><path d="M726 0L681 0L681 84.9Z" fill="#1d4e6b" stroke="#1d4e6b"></path><path d="M637 0L681 0L479 -12.1Z" fill="#19435d" stroke="#19435d"></path><path d="M87 294L105 350L160 268.3Z" fill="#00101c" stroke="#00101c"></path><path d="M142 405.7L146 476.6L154 404.6Z" fill="#297ea6" stroke="#297ea6"></path><path d="M262 572.1L300 600L279 542.1Z" fill="#297ea6" stroke="#297ea6"></path><path d="M794 120.7L764 156.6L778 179.4Z" fill="#15384f" stroke="#15384f"></path><path d="M748 90.7L726 0L681 84.9Z" fill="#00101c" stroke="#00101c"></path><path d="M799 263.3L819 250.3L802 234.3Z" fill="#205a7a" stroke="#205a7a"></path><path d="M816 126.6L794 120.7L778 179.4Z" fill="#246688" stroke="#246688"></path><path d="M818 352L799 263.3L780 348.9Z" fill="#297ea6" stroke="#297ea6"></path><path d="M292 -3.1L216 0L270 0Z" fill="#205a7a" stroke="#205a7a"></path><path d="M270 0L216 0L250 23.7Z" fill="#15384f" stroke="#15384f"></path><path d="M98 62.9L73 122.6L143 104.7Z" fill="#277297" stroke="#277297"></path><path d="M186 0L216 0L182 -2.1Z" fill="#15384f" stroke="#15384f"></path><path d="M819 265L819 250.3L799 263.3Z" fill="#00101c" stroke="#00101c"></path><path d="M103 179.6L92 241.1L120 232.4Z" fill="#277297" stroke="#277297"></path><path d="M105 248.3L87 294L160 268.3Z" fill="#205a7a" stroke="#205a7a"></path><path d="M103 179.6L120 232.4L114 183.4Z" fill="#205a7a" stroke="#205a7a"></path><path d="M94 159.4L103 179.6L114 183.4Z" fill="#246688" stroke="#246688"></path><path d="M84 271.1L87 294L105 248.3Z" fill="#246688" stroke="#246688"></path><path d="M216 0L201 6.9L250 23.7Z" fill="#15384f" stroke="#15384f"></path><path d="M822 392.7L815 356.7L763 388.9Z" fill="#15384f" stroke="#15384f"></path><path d="M77 425.7L146 476.6L142 405.7Z" fill="#277297" stroke="#277297"></path><path d="M165 552.1L230 583.1L256 531.4Z" fill="#112e42" stroke="#112e42"></path><path d="M815 356.7L818 352L780 348.9Z" fill="#1d4e6b" stroke="#1d4e6b"></path><path d="M83 248L105 248.3L92 241.1Z" fill="#277297" stroke="#277297"></path><path d="M83 248L84 271.1L105 248.3Z" fill="#00101c" stroke="#00101c"></path><path d="M831 240.1L778 179.4L802 234.3Z" fill="#246688" stroke="#246688"></path><path d="M70 243.3L83 248L92 241.1Z" fill="#297ea6" stroke="#297ea6"></path><path d="M703 600L715 544.1L632 525.3Z" fill="#0c2435" stroke="#0c2435"></path><path d="M680 501.4L715 544.1L723 437.6Z" fill="#19435d" stroke="#19435d"></path><path d="M773 416.6L822 392.7L763 388.9Z" fill="#246688" stroke="#246688"></path><path d="M815 356.7L822 392.7L818 352Z" fill="#246688" stroke="#246688"></path><path d="M819 265L831 240.1L819 250.3Z" fill="#00101c" stroke="#00101c"></path><path d="M819 250.3L831 240.1L802 234.3Z" fill="#112e42" stroke="#112e42"></path><path d="M851 308L831 240.1L819 265Z" fill="#19435d" stroke="#19435d"></path><path d="M783 84.9L779 79.6L766 90.7Z" fill="#246688" stroke="#246688"></path><path d="M766 90.7L779 79.6L748 90.7Z" fill="#081a28" stroke="#081a28"></path><path d="M811 97.9L783 84.9L794 120.7Z" fill="#19435d" stroke="#19435d"></path><path d="M794 120.7L783 84.9L766 90.7Z" fill="#00101c" stroke="#00101c"></path><path d="M84 156.4L94 159.4L73 122.6Z" fill="#0c2435" stroke="#0c2435"></path><path d="M143 104.7L94 159.4L114 183.4Z" fill="#277297" stroke="#277297"></path><path d="M103 179.6L70 243.3L92 241.1Z" fill="#0c2435" stroke="#0c2435"></path><path d="M105 350L97 398.6L142 405.7Z" fill="#297ea6" stroke="#297ea6"></path><path d="M89 402.7L97 398.6L74 402.9Z" fill="#297ea6" stroke="#297ea6"></path><path d="M71 325.9L105 350L87 294Z" fill="#00101c" stroke="#00101c"></path><path d="M165 552.1L237 482.3L183 470.4Z" fill="#15384f" stroke="#15384f"></path><path d="M262 572.1L241 600L300 600Z" fill="#19435d" stroke="#19435d"></path><path d="M216 0L186 0L201 6.9Z" fill="#00101c" stroke="#00101c"></path><path d="M201 6.9L186 0L168 72.7Z" fill="#205a7a" stroke="#205a7a"></path><path d="M182 -2.1L216 0L170 -5.1Z" fill="#19435d" stroke="#19435d"></path><path d="M848 422.7L822 392.7L773 416.6Z" fill="#1d4e6b" stroke="#1d4e6b"></path><path d="M818 352L851 308L819 265Z" fill="#297ea6" stroke="#297ea6"></path><path d="M766 0L726 0L748 90.7Z" fill="#1d4e6b" stroke="#1d4e6b"></path><path d="M681 0L726 0L479 -12.1Z" fill="#297ea6" stroke="#297ea6"></path><path d="M766 0L748 90.7L779 79.6Z" fill="#15384f" stroke="#15384f"></path><path d="M83 248L70 243.3L84 271.1Z" fill="#00101c" stroke="#00101c"></path><path d="M32 313.9L71 325.9L87 294Z" fill="#00101c" stroke="#00101c"></path><path d="M36 198.1L70 243.3L103 179.6Z" fill="#297ea6" stroke="#297ea6"></path><path d="M32 313.9L87 294L84 271.1Z" fill="#246688" stroke="#246688"></path><path d="M97 398.6L77 425.7L142 405.7Z" fill="#246688" stroke="#246688"></path><path d="M74 402.9L97 398.6L105 350Z" fill="#112e42" stroke="#112e42"></path><path d="M170 -5.1L216 0L292 -3.1Z" fill="#297ea6" stroke="#297ea6"></path><path d="M186 0L170 -5.1L168 72.7Z" fill="#15384f" stroke="#15384f"></path><path d="M73 122.6L94 159.4L143 104.7Z" fill="#277297" stroke="#277297"></path><path d="M94 159.4L84 156.4L103 179.6Z" fill="#112e42" stroke="#112e42"></path><path d="M210 600L241 600L230 583.1Z" fill="#081a28" stroke="#081a28"></path><path d="M230 583.1L241 600L262 572.1Z" fill="#205a7a" stroke="#205a7a"></path><path d="M165 552.1L183 470.4L146 476.6Z" fill="#1d4e6b" stroke="#1d4e6b"></path><path d="M831 240.1L816 126.6L778 179.4Z" fill="#15384f" stroke="#15384f"></path><path d="M783 84.9L807 67.9L779 79.6Z" fill="#15384f" stroke="#15384f"></path><path d="M816 126.6L811 97.9L794 120.7Z" fill="#19435d" stroke="#19435d"></path><path d="M876 363.9L851 308L818 352Z" fill="#081a28" stroke="#081a28"></path><path d="M831 240.1L900 177.4L816 126.6Z" fill="#0c2435" stroke="#0c2435"></path><path d="M845 0L807 67.9L884 31.7Z" fill="#297ea6" stroke="#297ea6"></path><path d="M479 -12.1L170 -5.1L292 -3.1Z" fill="#205a7a" stroke="#205a7a"></path><path d="M182 -2.1L170 -5.1L186 0Z" fill="#1d4e6b" stroke="#1d4e6b"></path><path d="M134 566.3L165 552.1L109 546.1Z" fill="#277297" stroke="#277297"></path><path d="M71 325.9L74 402.9L105 350Z" fill="#15384f" stroke="#15384f"></path><path d="M89 402.7L77 425.7L97 398.6Z" fill="#0c2435" stroke="#0c2435"></path><path d="M74 402.9L77 425.7L89 402.7Z" fill="#205a7a" stroke="#205a7a"></path><path d="M165 552.1L210 600L230 583.1Z" fill="#0c2435" stroke="#0c2435"></path><path d="M900 81.6L811 97.9L816 126.6Z" fill="#00101c" stroke="#00101c"></path><path d="M811 97.9L807 67.9L783 84.9Z" fill="#277297" stroke="#277297"></path><path d="M571 600L703 600L632 525.3Z" fill="#205a7a" stroke="#205a7a"></path><path d="M802 518.1L817 482.6L723 437.6Z" fill="#0c2435" stroke="#0c2435"></path><path d="M98 62.9L143 104.7L168 72.7Z" fill="#0c2435" stroke="#0c2435"></path><path d="M84 156.4L36 198.1L103 179.6Z" fill="#1d4e6b" stroke="#1d4e6b"></path><path d="M807 67.9L766 0L779 79.6Z" fill="#277297" stroke="#277297"></path><path d="M726 0L766 0L479 -12.1Z" fill="#277297" stroke="#277297"></path><path d="M125 0L98 62.9L168 72.7Z" fill="#00101c" stroke="#00101c"></path><path d="M77 425.7L95 481.4L146 476.6Z" fill="#081a28" stroke="#081a28"></path><path d="M165 552.1L148 600L210 600Z" fill="#297ea6" stroke="#297ea6"></path><path d="M802 518.1L723 437.6L715 544.1Z" fill="#277297" stroke="#277297"></path><path d="M822 392.7L876 363.9L818 352Z" fill="#112e42" stroke="#112e42"></path><path d="M703 600L729 590.1L715 544.1Z" fill="#112e42" stroke="#112e42"></path><path d="M817 482.6L848 422.7L773 416.6Z" fill="#112e42" stroke="#112e42"></path><path d="M729 590.1L769 554.1L715 544.1Z" fill="#297ea6" stroke="#297ea6"></path><path d="M769 554.1L802 518.1L715 544.1Z" fill="#00101c" stroke="#00101c"></path><path d="M900 471.3L900 458.6L848 422.7Z" fill="#081a28" stroke="#081a28"></path><path d="M70 243.3L32 313.9L84 271.1Z" fill="#0c2435" stroke="#0c2435"></path><path d="M71 325.9L34 405.6L74 402.9Z" fill="#0c2435" stroke="#0c2435"></path><path d="M34 405.6L50 445.4L77 425.7Z" fill="#0c2435" stroke="#0c2435"></path><path d="M77 425.7L50 445.4L95 481.4Z" fill="#0c2435" stroke="#0c2435"></path><path d="M0 242.3L32 313.9L70 243.3Z" fill="#00101c" stroke="#00101c"></path><path d="M802 518.1L819 494.3L817 482.6Z" fill="#19435d" stroke="#19435d"></path><path d="M0 120.4L36 198.1L73 122.6Z" fill="#081a28" stroke="#081a28"></path><path d="M73 122.6L36 198.1L84 156.4Z" fill="#0c2435" stroke="#0c2435"></path><path d="M170 -5.1L125 0L168 72.7Z" fill="#1d4e6b" stroke="#1d4e6b"></path><path d="M98 62.9L41 57.7L73 122.6Z" fill="#081a28" stroke="#081a28"></path><path d="M848 422.7L876 363.9L822 392.7Z" fill="#246688" stroke="#246688"></path><path d="M913 227.1L900 216.1L831 240.1Z" fill="#15384f" stroke="#15384f"></path><path d="M900 404.7L876 363.9L848 422.7Z" fill="#15384f" stroke="#15384f"></path><path d="M802 518.1L819 507.4L819 494.3Z" fill="#081a28" stroke="#081a28"></path><path d="M819 494.3L849 517.1L817 482.6Z" fill="#205a7a" stroke="#205a7a"></path><path d="M815 535.3L819 507.4L802 518.1Z" fill="#205a7a" stroke="#205a7a"></path><path d="M109 546.1L165 552.1L146 476.6Z" fill="#112e42" stroke="#112e42"></path><path d="M729 590.1L743 600L769 554.1Z" fill="#081a28" stroke="#081a28"></path><path d="M769 554.1L815 535.3L802 518.1Z" fill="#1d4e6b" stroke="#1d4e6b"></path><path d="M703 600L743 600L729 590.1Z" fill="#1d4e6b" stroke="#1d4e6b"></path><path d="M34 405.6L77 425.7L74 402.9Z" fill="#15384f" stroke="#15384f"></path><path d="M95 481.4L109 546.1L146 476.6Z" fill="#112e42" stroke="#112e42"></path><path d="M49 518.1L109 546.1L95 481.4Z" fill="#112e42" stroke="#112e42"></path><path d="M0 347.7L34 405.6L71 325.9Z" fill="#00101c" stroke="#00101c"></path><path d="M809 600L815 535.3L769 554.1Z" fill="#19435d" stroke="#19435d"></path><path d="M819 507.4L835 514.3L819 494.3Z" fill="#297ea6" stroke="#297ea6"></path><path d="M900 317L851 308L876 363.9Z" fill="#0c2435" stroke="#0c2435"></path><path d="M900 317L900 313.9L851 308Z" fill="#1d4e6b" stroke="#1d4e6b"></path><path d="M900 404.7L900 317L876 363.9Z" fill="#19435d" stroke="#19435d"></path><path d="M141 600L148 600L134 566.3Z" fill="#277297" stroke="#277297"></path><path d="M134 566.3L148 600L165 552.1Z" fill="#081a28" stroke="#081a28"></path><path d="M50 445.4L55 477.3L95 481.4Z" fill="#205a7a" stroke="#205a7a"></path><path d="M88 600L141 600L134 566.3Z" fill="#297ea6" stroke="#297ea6"></path><path d="M13 477.3L55 477.3L50 445.4Z" fill="#277297" stroke="#277297"></path><path d="M913 227.1L831 240.1L851 308Z" fill="#205a7a" stroke="#205a7a"></path><path d="M807 67.9L830 0L766 0Z" fill="#00101c" stroke="#00101c"></path><path d="M815 535.3L835 514.3L819 507.4Z" fill="#15384f" stroke="#15384f"></path><path d="M900 216.1L900 192.3L831 240.1Z" fill="#1d4e6b" stroke="#1d4e6b"></path><path d="M88 600L134 566.3L109 546.1Z" fill="#1d4e6b" stroke="#1d4e6b"></path><path d="M900 192.3L900 177.4L831 240.1Z" fill="#19435d" stroke="#19435d"></path><path d="M125 0L60 46.7L98 62.9Z" fill="#0c2435" stroke="#0c2435"></path><path d="M0 240.1L70 243.3L36 198.1Z" fill="#15384f" stroke="#15384f"></path><path d="M0 240.1L0 242.3L70 243.3Z" fill="#277297" stroke="#277297"></path><path d="M32 313.9L0 347.7L71 325.9Z" fill="#112e42" stroke="#112e42"></path><path d="M0 120.4L0 240.1L36 198.1Z" fill="#297ea6" stroke="#297ea6"></path><path d="M0 242.3L0 316L32 313.9Z" fill="#205a7a" stroke="#205a7a"></path><path d="M34 405.6L0 406.6L50 445.4Z" fill="#0c2435" stroke="#0c2435"></path><path d="M900 177.4L899 159.4L816 126.6Z" fill="#15384f" stroke="#15384f"></path><path d="M900 192.3L913 227.1L900 177.4Z" fill="#19435d" stroke="#19435d"></path><path d="M900 177.4L913 227.1L899 159.4Z" fill="#297ea6" stroke="#297ea6"></path><path d="M900 216.1L913 227.1L900 192.3Z" fill="#081a28" stroke="#081a28"></path><path d="M900 313.9L913 227.1L851 308Z" fill="#246688" stroke="#246688"></path><path d="M900 317L913 227.1L900 313.9Z" fill="#00101c" stroke="#00101c"></path><path d="M0 316L0 347.7L32 313.9Z" fill="#297ea6" stroke="#297ea6"></path><path d="M868 600L849 517.1L815 535.3Z" fill="#081a28" stroke="#081a28"></path><path d="M815 535.3L849 517.1L835 514.3Z" fill="#19435d" stroke="#19435d"></path><path d="M835 514.3L849 517.1L819 494.3Z" fill="#15384f" stroke="#15384f"></path><path d="M900 415.4L900 404.7L848 422.7Z" fill="#297ea6" stroke="#297ea6"></path><path d="M900 317L900 404.7L913 227.1Z" fill="#19435d" stroke="#19435d"></path><path d="M845 0L830 0L807 67.9Z" fill="#15384f" stroke="#15384f"></path><path d="M766 0L830 0L479 -12.1Z" fill="#00101c" stroke="#00101c"></path><path d="M900 458.6L900 415.4L848 422.7Z" fill="#246688" stroke="#246688"></path><path d="M900 404.7L905 459.6L913 227.1Z" fill="#297ea6" stroke="#297ea6"></path><path d="M0 77.6L41 57.7L0 65.7Z" fill="#0c2435" stroke="#0c2435"></path><path d="M60 46.7L41 57.7L98 62.9Z" fill="#1d4e6b" stroke="#1d4e6b"></path><path d="M0 347.7L0 389.9L34 405.6Z" fill="#1d4e6b" stroke="#1d4e6b"></path><path d="M13 477.3L49 518.1L55 477.3Z" fill="#112e42" stroke="#112e42"></path><path d="M55 477.3L49 518.1L95 481.4Z" fill="#112e42" stroke="#112e42"></path><path d="M0 389.9L0 406.6L34 405.6Z" fill="#0c2435" stroke="#0c2435"></path><path d="M900 81.6L807 67.9L811 97.9Z" fill="#277297" stroke="#277297"></path><path d="M830 0L845 0L479 -12.1Z" fill="#19435d" stroke="#19435d"></path><path d="M41 57.7L0 120.4L73 122.6Z" fill="#297ea6" stroke="#297ea6"></path><path d="M743 600L809 600L769 554.1Z" fill="#0c2435" stroke="#0c2435"></path><path d="M900 471.3L848 422.7L817 482.6Z" fill="#297ea6" stroke="#297ea6"></path><path d="M905 459.6L900 458.6L900 471.3Z" fill="#277297" stroke="#277297"></path><path d="M900 415.4L905 459.6L900 404.7Z" fill="#15384f" stroke="#15384f"></path><path d="M899 159.4L900 81.6L816 126.6Z" fill="#081a28" stroke="#081a28"></path><path d="M913 227.1L900 81.6L899 159.4Z" fill="#15384f" stroke="#15384f"></path><path d="M900 471.3L817 482.6L849 517.1Z" fill="#0c2435" stroke="#0c2435"></path><path d="M900 458.6L905 459.6L900 415.4Z" fill="#205a7a" stroke="#205a7a"></path><path d="M903 489.4L900 471.3L849 517.1Z" fill="#19435d" stroke="#19435d"></path><path d="M0 406.6L13 477.3L50 445.4Z" fill="#112e42" stroke="#112e42"></path><path d="M41 572.1L88 600L109 546.1Z" fill="#277297" stroke="#277297"></path><path d="M41 572.1L109 546.1L49 518.1Z" fill="#297ea6" stroke="#297ea6"></path><path d="M809 600L824 600L815 535.3Z" fill="#297ea6" stroke="#297ea6"></path><path d="M900 81.6L884 31.7L807 67.9Z" fill="#277297" stroke="#277297"></path><path d="M40 0L41 57.7L60 46.7Z" fill="#277297" stroke="#277297"></path><path d="M41 57.7L0 77.6L0 120.4Z" fill="#00101c" stroke="#00101c"></path><path d="M900 505.1L903 489.4L849 517.1Z" fill="#19435d" stroke="#19435d"></path><path d="M900 471.3L903 489.4L905 459.6Z" fill="#00101c" stroke="#00101c"></path><path d="M0 406.6L0 475.4L13 477.3Z" fill="#112e42" stroke="#112e42"></path><path d="M13 477.3L0 535.1L49 518.1Z" fill="#081a28" stroke="#081a28"></path><path d="M125 0L40 0L60 46.7Z" fill="#205a7a" stroke="#205a7a"></path><path d="M170 -5.1L40 0L125 0Z" fill="#081a28" stroke="#081a28"></path><path d="M0 12.9L0 65.7L41 57.7Z" fill="#112e42" stroke="#112e42"></path><path d="M900 600L900 505.1L849 517.1Z" fill="#00101c" stroke="#00101c"></path><path d="M913 227.1L900 25.7L900 81.6Z" fill="#081a28" stroke="#081a28"></path><path d="M900 81.6L900 25.7L884 31.7Z" fill="#081a28" stroke="#081a28"></path><path d="M884 31.7L900 3.9L845 0Z" fill="#297ea6" stroke="#297ea6"></path><path d="M0 541.3L41 572.1L49 518.1Z" fill="#205a7a" stroke="#205a7a"></path><path d="M913 227.1L900 3.9L900 25.7Z" fill="#00101c" stroke="#00101c"></path><path d="M900 25.7L900 3.9L884 31.7Z" fill="#081a28" stroke="#081a28"></path><path d="M913 227.1L900 0L900 3.9Z" fill="#081a28" stroke="#081a28"></path><path d="M900 3.9L900 0L845 0Z" fill="#112e42" stroke="#112e42"></path><path d="M845 0L900 0L479 -12.1Z" fill="#19435d" stroke="#19435d"></path><path d="M0 475.4L0 535.1L13 477.3Z" fill="#1d4e6b" stroke="#1d4e6b"></path><path d="M40 0L0 12.9L41 57.7Z" fill="#081a28" stroke="#081a28"></path><path d="M824 600L868 600L815 535.3Z" fill="#297ea6" stroke="#297ea6"></path><path d="M0 535.1L0 541.3L49 518.1Z" fill="#297ea6" stroke="#297ea6"></path><path d="M170 -5.1L0 0L40 0Z" fill="#112e42" stroke="#112e42"></path><path d="M40 0L0 0L0 12.9Z" fill="#297ea6" stroke="#297ea6"></path><path d="M170 -5.1L-11 0L0 0Z" fill="#19435d" stroke="#19435d"></path><path d="M0 0L-11 0L0 12.9Z" fill="#246688" stroke="#246688"></path><path d="M0 12.9L-11 0L0 65.7Z" fill="#081a28" stroke="#081a28"></path><path d="M0 65.7L-11 0L0 77.6Z" fill="#15384f" stroke="#15384f"></path><path d="M0 77.6L-11 0L0 120.4Z" fill="#081a28" stroke="#081a28"></path><path d="M0 120.4L-11 0L0 240.1Z" fill="#112e42" stroke="#112e42"></path><path d="M0 240.1L-11 0L0 242.3Z" fill="#15384f" stroke="#15384f"></path><path d="M0 242.3L-11 0L0 316Z" fill="#277297" stroke="#277297"></path><path d="M0 316L-11 0L0 347.7Z" fill="#00101c" stroke="#00101c"></path><path d="M0 347.7L-7 600L0 389.9Z" fill="#205a7a" stroke="#205a7a"></path><path d="M0 389.9L-7 600L0 406.6Z" fill="#112e42" stroke="#112e42"></path><path d="M0 406.6L-7 600L0 475.4Z" fill="#19435d" stroke="#19435d"></path><path d="M0 475.4L-7 600L0 535.1Z" fill="#205a7a" stroke="#205a7a"></path><path d="M0 535.1L-7 600L0 541.3Z" fill="#15384f" stroke="#15384f"></path><path d="M868 600L900 600L849 517.1Z" fill="#19435d" stroke="#19435d"></path><path d="M900 505.1L900 600L903 489.4Z" fill="#19435d" stroke="#19435d"></path><path d="M903 489.4L900 600L905 459.6Z" fill="#112e42" stroke="#112e42"></path><path d="M-7 600L0 600L0 541.3Z" fill="#277297" stroke="#277297"></path><path d="M0 541.3L0 600L41 572.1Z" fill="#15384f" stroke="#15384f"></path><path d="M41 572.1L0 600L88 600Z" fill="#205a7a" stroke="#205a7a"></path><path d="M-11 0L-7 600L0 347.7Z" fill="#205a7a" stroke="#205a7a"></path></g></svg>